{"title":"The Midnight Meat Train (2008) [R5] [Eng] [Xvid] {1337x}-Noir","uid":4427670,"size":758246942,"categoryP":"video","categoryS":"movies","magnet":"?xt=urn:btih:5b86b61c7fd49a1bb7d2fe0e57d711bdc190f4a0&amp;dn=The+Midnight+Meat+Train+%282008%29+%5BR5%5D+%5BEng%5D+%5BXvid%5D+%7B1337x%7D-Noir&amp;tr=udp%3A%2F%2Ftracker.openbittorrent.com%3A80&amp;tr=udp%3A%2F%2Fopen.demonii.com%3A1337&amp;tr=udp%3A%2F%2Ftracker.coppersurfer.tk%3A6969&amp;tr=udp%3A%2F%2Fexodus.desync.com%3A6969","seeders":2,"leechers":0,"uploader":"INoirI","files":3,"time":1223121566,"description":"                        Screenshots\n &lt;a href=&quot;\nhttp://i220.photobucket.com/albums/dd94/ItheplagueI/6-1.jpg&quot; rel=&quot;nofollow&quot; target=&quot;_NEW&quot;&gt;\nhttp://i220.photobucket.com/albums/dd94/ItheplagueI/6-1.jpg&lt;/a&gt;\n &lt;a href=&quot;\nhttp://i220.photobucket.com/albums/dd94/ItheplagueI/1-16.jpg&quot; rel=&quot;nofollow&quot; target=&quot;_NEW&quot;&gt;\nhttp://i220.photobucket.com/albums/dd94/ItheplagueI/1-16.jpg&lt;/a&gt;\n &lt;a href=&quot;\nhttp://i220.photobucket.com/albums/dd94/ItheplagueI/7.jpg&quot; rel=&quot;nofollow&quot; target=&quot;_NEW&quot;&gt;\nhttp://i220.photobucket.com/albums/dd94/ItheplagueI/7.jpg&lt;/a&gt;\n &lt;a href=&quot;\nhttp://i220.photobucket.com/albums/dd94/ItheplagueI/5-6.jpg&quot; rel=&quot;nofollow&quot; target=&quot;_NEW&quot;&gt;\nhttp://i220.photobucket.com/albums/dd94/ItheplagueI/5-6.jpg&lt;/a&gt;\n\n\n\n              ***********************************\n              * The Midnight Meat Train  (2008) *\n              ***********************************\n\n________________________\n   General Information  |  \n________________________|\n_______________________________________________________________\nType                    : Movie                                \nFormat                  : AVI                                  \nFormat/Info             : Audio Video Interleave               \nFile size               : 729Mb                                \nDuration                : 2h 02mn                              \nLanguage                : English                              \nSubtitles               : None                                 \nSource                  : Dvd PAL                             \nGenre                   : Crime | Horror | Mystery | Thriller                  \nIMDB Link               : http://www.imdb.com/title/tt0805570/ \nRating                  : 7.3/10                               \n_______________________________________________________________\n________________________________________________________________\nVideo\nFormat                           : MPEG-4 Visual\nFormat profile                   : Streaming Video@L1\nFormat settings, BVOP            : Yes\nFormat settings, QPel            : No\nFormat settings, GMC             : No warppoints\nFormat settings, Matrix          : Default\nMuxing mode                      : Packed bitstream\nCodec ID                         : DX50/60 | Xvid 1.2.0\nCodec ID/Hint                    : DivX 5\nDuration                         : 1h 33mn\nBit rate                         : 939 Kbps\nWidth                            : 640 pixels\nHeight                           : 272 pixels\nDisplay aspect ratio             : 2.35\nFrame rate                       : 25.000 fps\nResolution                       : 24 bits\nColorimetry                      : 4:2:0\nScan type                        : Progressive\nBits/(Pixel*Frame)               : 0.216\nStream size                      : 631 MiB (99%)\nWriting library                  : XviD 1.2.0.dev47            \n_______________________________________________________________\nAudio\nFormat                           : MPEG Audio\nFormat version                   : Version 1\nFormat profile                   : Layer 3\nCodec ID                         : 55\nCodec ID/Hint                    : MP3\nDuration                         : 1h 33mn\nBit rate mode                    : Constant\nBit rate                         : 128 Kbps\nChannel(s)                       : 2 channels\nSampling rate                    : 48.0 KHz\nResolution                       : 16 bits\nStream size                      : 85.9 MiB (12%)\nAlignment                        : Aligned on interleaves\nInterleave, duration             : 40 ms (1.00 video frame)\nInterleave, preload duration     : 504 ms                       \n_______________________________________________________________\n________________\n   Description  \n________________\n_______________________________________________________________\nPhotographer Leon goes into the city&amp;#039;s subway system at night \nto take photographs. He saves a woman who is attacked by a gang \nby pointing out the videocamera. This young woman goes missing \nby the next day. Leon later finds clues in the photos he has \ntaken that lead him to discover that butcher Mahogany is \ninvolved and may be a serial killer, and that there have been \npeople going missing in the subway for at least a hundred\nyears. Leon&amp;#039;s involvement quickly turns into a dark obsession,         \n_______________________________________________________________\n\n___________________\nNotes              \n___________________\n_______________________________________________________________\nBe aware People are starting to use my tag to create fake files\nMake sure its a real genuine release from me, I have never and \nwill never do Cams,Telesyncs,Telecine. I have never and will   \nnever do Rar files. Try to check 1337x.org to see if the file  \nexist. Fuck the fakers and enjoy my release.                   \n_______________________________________________________________\n___________________\n  Post Information \n___________________\n_________________________________\nPosted by............: Noir     \nPosted on............: 10/04/2008\n_________________________________","torrent":{"xt":"urn:btih:5b86b61c7fd49a1bb7d2fe0e57d711bdc190f4a0","amp;dn":"The+Midnight+Meat+Train+%282008%29+%5BR5%5D+%5BEng%5D+%5BXvid%5D+%7B1337x%7D-Noir","amp;tr":["udp%3A%2F%2Ftracker.openbittorrent.com%3A80","udp%3A%2F%2Fopen.demonii.com%3A1337","udp%3A%2F%2Ftracker.coppersurfer.tk%3A6969","udp%3A%2F%2Fexodus.desync.com%3A6969"],"infoHash":"5b86b61c7fd49a1bb7d2fe0e57d711bdc190f4a0","infoHashBuffer":{"type":"Buffer","data":[91,134,182,28,127,212,154,27,183,210,254,14,87,215,17,189,193,144,244,160]},"announce":[],"urlList":[]}}